# xmcd CD database file
#
# Track frame offsets:
#	150
#	52992
#	78617
#	130390
#	181880
#	218820
#	240115
#
# Disc length: 3711 seconds
#
# Revision: 0
# Processed by: cddbd v1.5.2PL0 Copyright (c) Steve Scherf et al.
# Submitted via: CDex 1.51
#
DISCID=550e7d07
DTITLE=Joe Rosenberg - Danse De La Furuer
DYEAR=2003
DGENRE=Jazz
TTITLE0=The List Makers
TTITLE1=Hazard
TTITLE2=357
TTITLE3=Danse De La Fureur
TTITLE4=Not In Hong Kong
TTITLE5=Ballad
TTITLE6=Non-Paraleipsis
EXTD=YEAR: 2003
EXTT0=
EXTT1=
EXTT2=
EXTT3=
EXTT4=
EXTT5=
EXTT6=
PLAYORDER=
